# xmcd
#
# Track frame offsets: 
#        150
#        12083
#        26884
#        41516
#        61760
#        79107
#        107567
#        125696
#        149385
#        174895
#        186275
#
# Disc length: 2923 seconds
#
# Revision: 0
# Processed by: cddbd v1.5.2PL0 Copyright (c) Steve Scherf et al.
# Submitted via: ExactAudioCopy v0.95a5
#
DISCID=8b0b690b
DTITLE=John Dummer Blues Band - The Lost 1973 Album
DYEAR=1973
DGENRE=Blues
TTITLE0=LA Lady
TTITLE1=Sunny Wine Song
TTITLE2=Short Haul Line
TTITLE3=Reach For Me
TTITLE4=Goin' Home
TTITLE5=Bad Dream
TTITLE6=Good Rockin' Man
TTITLE7=Undying Love
TTITLE8=Who's Foolin' Who
TTITLE9=Stealin'
TTITLE10=Keep It in My Mind
EXTD=
EXTT0=
EXTT1=
EXTT2=
EXTT3=
EXTT4=
EXTT5=
EXTT6=
EXTT7=
EXTT8=
EXTT9=
EXTT10=
PLAYORDER=
